<?xml version="1.0" encoding="utf-8"?>
<!-- Generator: Adobe Illustrator 22.1.0, SVG Export Plug-In . SVG Version: 6.00 Build 0)  -->
<svg version="1.1" id="Camada_1" xmlns="http://www.w3.org/2000/svg" xmlns:xlink="http://www.w3.org/1999/xlink" x="0px" y="0px"
	 viewBox="0 0 595.3 841.9" style="enable-background:new 0 0 595.3 841.9;" xml:space="preserve">
<style type="text/css">
	.st0{fill:none;stroke:#000000;stroke-width:4;stroke-linecap:round;stroke-miterlimit:10;}
	.st1{fill:none;stroke:#000000;stroke-width:4;stroke-linecap:round;stroke-linejoin:round;stroke-miterlimit:10;}
	.st2{fill:#28B9CB;}
	.st3{fill:#E93081;}
	.st4{fill:#6E3772;}
	.st5{fill:#F49200;}
	.st6{fill:#3D2F82;}
	.st7{fill:#E6310B;}
	.st8{fill:#9E1777;}
	.st9{fill:#009C57;}
	.st10{fill:#3EA4DD;}
	.st11{fill:#9E1779;}
	.st12{fill:#F9C6C1;}
	.st13{fill:#2AB9CB;}
	.st14{fill:#54939C;}
	.st15{fill:#E5200C;}
	.st16{fill:#3CA4DD;}
	.st17{fill:#FFEF00;}
	.st18{fill:#A26439;}
	.st19{fill:#47553C;}
	.st20{fill:#E82F81;}
	.st21{fill:#A2C72D;}
	.st22{fill:#A07D23;}
	.st23{fill:#9D3828;}
	.st24{fill:#A5D8D6;}
	.st25{fill:#5CB239;}
	.st26{fill:#442A37;}
	.st27{fill:#791312;}
	.st28{fill:#158F41;}
	.st29{fill:#54247B;}
	.st30{fill:#F9C7C1;}
</style>
<g>
	<line class="st0" x1="158.1" y1="460.8" x2="227.9" y2="460.8"/>
	<line class="st1" x1="227.9" y1="460.8" x2="227.9" y2="377.1"/>
	<line class="st1" x1="227.9" y1="377.1" x2="227.9" y2="459.5"/>
	<line class="st0" x1="259.2" y1="359" x2="227.9" y2="377"/>
	<line class="st0" x1="259.5" y1="444.7" x2="259.5" y2="358.9"/>
	<line class="st0" x1="239.8" y1="444.9" x2="259.3" y2="444.9"/>
	<line class="st0" x1="239.8" y1="293.1" x2="239.8" y2="444.8"/>
	<line class="st0" x1="286.3" y1="293" x2="239.8" y2="293"/>
	<line class="st0" x1="286.8" y1="404.5" x2="286.8" y2="293.1"/>
	<line class="st0" x1="271" y1="321.9" x2="271" y2="404.4"/>
	<line class="st0" x1="286.7" y1="404.6" x2="271" y2="404.6"/>
	<line class="st0" x1="317.8" y1="321.9" x2="271" y2="321.9"/>
	<line class="st0" x1="318" y1="421.4" x2="318" y2="321.9"/>
	<line class="st0" x1="303" y1="421.4" x2="303" y2="360.1"/>
	<line class="st0" x1="318" y1="421.4" x2="303" y2="421.4"/>
	<line class="st0" x1="349.5" y1="337.1" x2="303" y2="360"/>
	<line class="st0" x1="349.5" y1="460.9" x2="349.5" y2="337.3"/>
	<line class="st0" x1="331.8" y1="460.9" x2="331.8" y2="362.1"/>
	<line class="st0" x1="349.5" y1="460.9" x2="332.2" y2="460.9"/>
	<line class="st0" x1="367.5" y1="384.4" x2="332" y2="362.2"/>
	<line class="st0" x1="367.8" y1="460.2" x2="367.8" y2="384.5"/>
	<line class="st0" x1="437.3" y1="460.4" x2="367.7" y2="460.4"/>
</g>
<g>
	<g>
		<g>
			<path class="st2" d="M249.8,483.1c-1.6-0.2-2.8,0-3.4,0.5c-0.7,0.5-0.6,2.1-0.6,2.1v22.2h-6.1v-22.1c0-0.9-0.1-4.2,2.4-6.6
				c2-1.9,4.8-2.6,8.4-2.1L249.8,483.1"/>
			<path class="st3" d="M250,487.4h-4.2v6.1h4.2c1.7,0,3-1.4,3-3C253.1,488.7,251.7,487.4,250,487.4 M239.7,487.4h-1.9
				c-1.7,0-3,1.4-3,3c0,1.7,1.4,3,3,3h1.9L239.7,487.4"/>
			<polyline class="st4" points="245.8,487.4 239.7,487.4 239.7,493.5 245.8,493.5 245.8,487.4 			"/>
			<circle class="st5" cx="242.8" cy="507.9" r="3"/>
			<circle class="st6" cx="250" cy="490.4" r="3"/>
			<circle class="st7" cx="250.2" cy="480.1" r="3"/>
		</g>
		<g>
			<path class="st8" d="M277.1,511.1c-0.7,0.1-1.4,0.1-2.1,0.1c-2.6,0-4.8-0.8-6.3-2.3c-2.5-2.4-2.5-5.7-2.4-6.6v-22.1h6.1v22.4
				l0,0.1c0,0.3,0.1,1.3,0.6,1.8c0.6,0.5,1.8,0.7,3.4,0.5L277.1,511.1z"/>
			<circle class="st9" cx="276.7" cy="508.1" r="3"/>
			<circle class="st5" cx="269.3" cy="480.3" r="3"/>
		</g>
		<g>
			<path class="st5" d="M303,499c0-0.7-0.1-1.3-0.3-2c-0.2-0.6-0.5-1.2-0.8-1.7c-0.7-1.1-1.8-1.9-3-2.4c-0.8-0.3-1.7-0.5-2.7-0.5
				c-0.7,0-1.4,0.1-2.1,0.3c-0.6,0.2-1.2,0.5-1.8,0.8c-1.1,0.7-2,1.7-2.5,2.9c-0.3,0.8-0.5,1.6-0.5,2.6l0,0h-6.1
				c0-1.3,0.2-2.6,0.6-3.8c0.4-1.2,0.9-2.3,1.6-3.3c1.4-2,3.4-3.6,5.7-4.6c1.5-0.6,3.2-1,5-1c0,0,0,0,0,0c1.3,0,2.6,0.2,3.8,0.6
				c1.2,0.4,2.3,0.9,3.4,1.6c2.1,1.4,3.7,3.3,4.7,5.6c0.7,1.5,1,3.2,1,5H303z"/>
			<path class="st10" d="M309.1,499c0,1.7-1.4,3-3,3s-3-1.4-3-3l0,0c0,3.7-3.1,6.6-6.8,6.6c-3.8,0-6.8-3-6.8-6.6l0,0
				c0,1.7-1.4,3-3,3c-1.7,0-3-1.4-3-3c0,7,5.8,12.7,12.9,12.7c0,0,0,0,0,0C303.3,511.7,309.1,506,309.1,499"/>
			<path class="st11" d="M286.3,496c-1.7,0-3,1.4-3,3l0,0c0,1.7,1.4,3,3,3s3-1.4,3-3l0,0C289.3,497.3,288,496,286.3,496"/>
			<path class="st6" d="M306.1,496c-1.7,0-3,1.4-3,3l0,0c0,1.7,1.4,3,3,3s3-1.4,3-3l0,0C309.1,497.3,307.7,496,306.1,496"/>
		</g>
		<g>
			<path class="st12" d="M325.6,500.9l-6-12.6l-5.5,2.6l8.8,18.2L325.6,500.9z M328.3,509.2L328.3,509.2c-0.1,0.3-0.3,0.5-0.5,0.7
				C328.1,509.7,328.2,509.4,328.3,509.2 M327.9,509.9C327.9,509.9,327.9,509.9,327.9,509.9C327.9,509.9,327.9,509.9,327.9,509.9
				 M327.9,509.9C327.9,509.9,327.8,509.9,327.9,509.9C327.8,509.9,327.9,509.9,327.9,509.9 M327.8,509.9
				C327.8,509.9,327.8,509.9,327.8,509.9C327.8,509.9,327.8,509.9,327.8,509.9 M327.8,509.9C327.8,509.9,327.8,509.9,327.8,509.9
				C327.8,509.9,327.8,509.9,327.8,509.9 M327.8,510C327.8,510,327.8,510,327.8,510C327.8,510,327.8,510,327.8,510 M327.8,510
				C327.8,510,327.8,510,327.8,510C327.8,510,327.8,510,327.8,510 M327.8,510C327.8,510,327.8,510,327.8,510
				C327.8,510,327.8,510,327.8,510 M327.8,510C327.8,510,327.8,510,327.8,510C327.8,510,327.8,510,327.8,510 M327.8,510
				C327.8,510,327.8,510,327.8,510C327.8,510,327.8,510,327.8,510 M327.7,510C327.7,510,327.7,510,327.7,510
				C327.7,510,327.7,510,327.7,510 M327.7,510C327.7,510,327.7,510,327.7,510C327.7,510,327.7,510,327.7,510 M327.7,510
				C327.7,510,327.7,510,327.7,510C327.7,510,327.7,510,327.7,510 M327.7,510.1C327.7,510.1,327.7,510.1,327.7,510.1
				C327.7,510.1,327.7,510.1,327.7,510.1 M323.9,510.4C323.9,510.4,323.9,510.4,323.9,510.4C323.9,510.4,323.9,510.4,323.9,510.4
				 M323.9,510.4C323.9,510.4,323.9,510.4,323.9,510.4C323.9,510.4,323.9,510.4,323.9,510.4 M323.9,510.4c0.1,0.1,0.2,0.1,0.4,0.2
				c0,0,0,0,0,0C324.1,510.6,324,510.5,323.9,510.4 M324.3,510.6C324.3,510.6,324.3,510.6,324.3,510.6
				C324.3,510.6,324.3,510.6,324.3,510.6 M326.8,510.7c-0.4,0.2-0.8,0.2-1.2,0.2C326,510.9,326.4,510.8,326.8,510.7 M325.6,510.9
				L325.6,510.9L325.6,510.9 M325.6,510.9C325.6,510.9,325.6,510.9,325.6,510.9C325.6,510.9,325.6,510.9,325.6,510.9
				C325.6,510.9,325.6,510.9,325.6,510.9"/>
			<path class="st13" d="M331.6,488.3C331.6,488.3,331.6,488.3,331.6,488.3l-6.1,12.6l2.8,8.3l6-12.5L331.6,488.3z"/>
			<path class="st14" d="M325.6,500.9l-2.7,5.7c-0.4,0.9-0.4,1.8,0,2.6l0,0h5.5l0,0c0.4-0.8,0.4-1.8,0-2.6L325.6,500.9"/>
			<path class="st3" d="M343.1,500.9l-6-12.5l-2.8,8.3l6,12.6c0,0,0,0,0,0.1L343.1,500.9z"/>
			<path class="st4" d="M331.7,488.3C331.7,488.3,331.7,488.3,331.7,488.3C331.7,488.3,331.6,488.3,331.7,488.3
				c-0.4,0.8-0.5,1.8,0,2.7l2.7,5.7l2.7-5.7c0.4-0.9,0.4-1.8,0-2.6l0,0L331.7,488.3z"/>
			<path class="st3" d="M345.9,509.2L345.9,509.2c-0.1,0.3-0.3,0.5-0.5,0.7C345.6,509.7,345.8,509.5,345.9,509.2 M340.4,509.3
				C340.4,509.3,340.4,509.3,340.4,509.3C340.4,509.3,340.4,509.3,340.4,509.3 M340.6,509.6C340.6,509.6,340.6,509.6,340.6,509.6
				C340.6,509.6,340.6,509.6,340.6,509.6 M340.6,509.6C340.6,509.6,340.6,509.6,340.6,509.6C340.6,509.6,340.6,509.6,340.6,509.6
				 M340.6,509.6C340.6,509.6,340.6,509.6,340.6,509.6C340.6,509.6,340.6,509.6,340.6,509.6 M340.6,509.6c0.3,0.5,0.8,0.8,1.3,1.1
				c0,0-0.1,0-0.1,0C341.3,510.4,340.9,510,340.6,509.6 M345.4,509.9C345.4,509.9,345.4,510,345.4,509.9
				C345.4,510,345.4,509.9,345.4,509.9 M345.4,510C345.4,510,345.3,510,345.4,510C345.3,510,345.4,510,345.4,510 M345.3,510
				C345.3,510,345.3,510,345.3,510C345.3,510,345.3,510,345.3,510 M345.3,510C345.3,510,345.3,510,345.3,510
				C345.3,510,345.3,510,345.3,510 M345.3,510C345.3,510,345.3,510,345.3,510C345.3,510,345.3,510,345.3,510 M345.3,510.1
				C345.3,510.1,345.3,510.1,345.3,510.1C345.3,510.1,345.3,510.1,345.3,510.1 M345.3,510.1C345.3,510.1,345.3,510.1,345.3,510.1
				C345.3,510.1,345.3,510.1,345.3,510.1 M345.3,510.1C345.3,510.1,345.2,510.1,345.3,510.1C345.2,510.1,345.3,510.1,345.3,510.1
				 M345.2,510.1C345.2,510.1,345.2,510.1,345.2,510.1C345.2,510.1,345.2,510.1,345.2,510.1 M345.2,510.1
				C345.2,510.1,345.2,510.1,345.2,510.1C345.2,510.1,345.2,510.1,345.2,510.1 M345.2,510.1C345.2,510.1,345.2,510.1,345.2,510.1
				C345.2,510.1,345.2,510.1,345.2,510.1 M345.2,510.1C345.2,510.1,345.2,510.1,345.2,510.1C345.2,510.1,345.2,510.1,345.2,510.1
				 M345.2,510.1C345.2,510.1,345.2,510.1,345.2,510.1C345.2,510.1,345.2,510.1,345.2,510.1 M345.2,510.2
				C345.2,510.2,345.2,510.2,345.2,510.2C345.2,510.2,345.2,510.2,345.2,510.2 M345.2,510.2C345.2,510.2,345.2,510.2,345.2,510.2
				C345.2,510.2,345.2,510.2,345.2,510.2 M344.4,510.7C344.4,510.7,344.4,510.7,344.4,510.7C344.4,510.7,344.4,510.7,344.4,510.7
				 M341.9,510.7C341.9,510.7,341.9,510.7,341.9,510.7C341.9,510.7,341.9,510.7,341.9,510.7 M344.4,510.7c-0.4,0.2-0.8,0.2-1.2,0.3
				C343.6,510.9,344,510.8,344.4,510.7 M343.1,510.9C343.1,510.9,343.1,510.9,343.1,510.9C343.1,510.9,343.1,510.9,343.1,510.9
				 M343.2,510.9C343.2,510.9,343.2,510.9,343.2,510.9C343.1,510.9,343.1,510.9,343.2,510.9C343.2,510.9,343.2,510.9,343.2,510.9"/>
			<polygon class="st5" points="349.2,488.3 343.1,500.9 345.9,509.2 354.7,491 			"/>
			<path class="st15" d="M345.4,509.9"/>
			<path class="st15" d="M343.1,500.9l-2.7,5.7c-0.4,0.9-0.4,1.7-0.1,2.4l5.6,0.2c0.4-0.8,0.4-1.8,0-2.6L343.1,500.9"/>
			
				<ellipse transform="matrix(0.1602 -0.9871 0.9871 0.1602 -217.2687 723.9108)" class="st11" cx="316.8" cy="489.6" rx="3" ry="3"/>
			<circle class="st6" cx="325.6" cy="507.9" r="3"/>
			<path class="st9" d="M348.9,489.6c0-1.7,1.4-3,3-3s3,1.4,3,3c0,1.7-1.4,3-3,3C350.3,492.7,348.9,491.3,348.9,489.6L348.9,489.6z"
				/>
			<path class="st16" d="M340.1,507.9c0-1.7,1.4-3,3-3c1.7,0,3,1.4,3,3c0,1.7-1.4,3-3,3C341.5,510.9,340.1,509.6,340.1,507.9
				L340.1,507.9z"/>
			
				<ellipse transform="matrix(0.1602 -0.9871 0.9871 0.1602 -202.5138 741.253)" class="st17" cx="334.4" cy="489.6" rx="3" ry="3"/>
		</g>
	</g>
</g>
<g>
	<g>
		<g>
			<path class="st18" d="M119,522.6l0,28.3c0,3,2,3.5,5,3.1l1.1,7.6c-8.9,1.3-13.8-3.8-13.8-10.9v-28.1"/>
			<path class="st13" d="M124.3,529.8H119v7.7h5.3V529.8z M111.3,529.8h-2.3c-2.1,0-3.9,1.7-3.9,3.9c0,2.1,1.7,3.9,3.9,3.9h2.3
				V529.8"/>
			<polyline class="st19" points="119,529.8 111.3,529.8 111.3,537.5 119,537.5 119,529.8 			"/>
			<path class="st16" d="M111.3,522.6c0-2.1,1.7-3.9,3.9-3.9s3.9,1.7,3.9,3.9c0,2.1-1.7,3.9-3.9,3.9
				C113,526.4,111.3,524.7,111.3,522.6L111.3,522.6z"/>
			<path class="st11" d="M120.4,533.7c0-2.1,1.7-3.9,3.9-3.9s3.9,1.7,3.9,3.9c0,2.1-1.7,3.9-3.9,3.9
				C122.2,537.5,120.4,535.8,120.4,533.7L120.4,533.7z"/>
			<path class="st20" d="M120.7,557.8c0-2.1,1.7-3.9,3.9-3.9c2.1,0,3.9,1.7,3.9,3.9s-1.7,3.9-3.9,3.9
				C122.4,561.6,120.7,559.9,120.7,557.8L120.7,557.8z"/>
		</g>
		<g>
			<path class="st5" d="M150.9,546.5L150.9,546.5c0,1.4,0.3,2.7,0.7,3.8c0.5,1.1,1.1,2,2,2.7c0.6,0.5,1.2,0.9,2,1.2
				c1,0.4,2.3,0.7,3.9,0.7c0,0,0,0,0,0c1,0,2-0.2,3.1-0.6c1-0.4,2-1,2.7-1.7l5.1,5.7c-1.5,1.3-3.2,2.4-5.1,3.1
				c-1.9,0.7-3.8,1.1-5.9,1.1c0,0,0,0,0,0c-2.1,0-4-0.3-5.8-0.9c-1.8-0.6-3.4-1.5-4.8-2.6c-0.9-0.7-1.7-1.6-2.4-2.5
				c-0.9-1.2-1.7-2.6-2.2-4c-0.7-1.9-1-4-1-6.1H150.9z"/>
			<path class="st21" d="M158.7,530.4C158.7,530.4,158.6,530.4,158.7,530.4C158.6,530.4,158.6,530.4,158.7,530.4
				c-8.5,0-15.5,7.2-15.5,16.1l0,0h0h7.7c0-4.7,3.6-8.4,7.8-8.4c3.4,0,5.9,1.8,7.2,4.5l8.5,3.9C174.3,537.5,167.8,530.4,158.7,530.4
				"/>
			<path class="st22" d="M147,542.6c-2.1,0-3.9,1.7-3.9,3.9h0c0,2.1,1.7,3.9,3.9,3.9s3.9-1.7,3.9-3.9
				C150.9,544.3,149.2,542.6,147,542.6"/>
			<path class="st3" d="M165.8,542.6"/>
			<path class="st3" d="M165.8,542.6h-8.7c-2.1,0-3.9,1.7-3.9,3.9c0,2.1,1.7,3.9,3.9,3.9h13.3L165.8,542.6z"/>
			<path class="st23" d="M170.4,542.6h-4.6c0,0,0,0,0,0.1c0.5,1.1,0.7,2.4,0.7,3.8c0,2.1,1.7,3.9,3.9,3.9l0,0c2.1,0,3.9-1.7,3.9-3.9
				l0,0C174.3,544.3,172.6,542.6,170.4,542.6"/>
			<circle class="st16" cx="167.8" cy="555.5" r="3.9"/>
		</g>
		<g>
			<path class="st24" d="M202.7,540c-5.6-5-14.8-1.2-14.8,6.2h-7.7c0-14.1,17.2-21.3,27.6-11.9L202.7,540z"/>
			<path class="st21" d="M202.6,552.4c-0.8,0.7-1.7,1.2-2.7,1.6c-1,0.4-2.1,0.6-3.2,0.6c-1.2,0-2.4-0.2-3.5-0.7
				c-1.6-0.7-2.9-1.7-3.9-3.1c-0.5-0.7-0.8-1.4-1.1-2.2c-0.3-0.8-0.4-1.6-0.4-2.5l0,0h-7.7c0,2.2,0.5,4.4,1.3,6.3
				c1.3,2.9,3.4,5.4,6,7.1c1.3,0.9,2.8,1.5,4.3,2c1.5,0.5,3.2,0.7,4.9,0.7c0,0,0,0,0,0c2.1,0,4.1-0.4,5.9-1.1c1.8-0.7,3.5-1.7,5-3
				L202.6,552.4z"/>
			<path class="st25" d="M184,542.3c-2.1,0-3.9,1.7-3.9,3.9l0,0c0,2.1,1.7,3.9,3.9,3.9c2.1,0,3.9-1.7,3.9-3.9l0,0
				C187.9,544,186.2,542.3,184,542.3"/>
			<path class="st16" d="M201.2,555.3c0-2.1,1.7-3.9,3.9-3.9s3.9,1.7,3.9,3.9s-1.7,3.9-3.9,3.9S201.2,557.4,201.2,555.3L201.2,555.3
				z"/>
			
				<ellipse transform="matrix(0.5257 -0.8507 0.8507 0.5257 -359.5387 429.3332)" class="st20" cx="205.3" cy="537.1" rx="3.9" ry="3.9"/>
		</g>
		<g>
			<polyline class="st9" points="215,523 215,557.9 222.7,557.9 222.7,523 			"/>
			<path class="st11" d="M235.4,544.2c0-6.8-9.6-8.3-12.2-2.3c-0.3,0.7-0.5,1.5-0.5,2.3l0,0v-12.3c9.3-4.6,20.4,1.9,20.4,12.2
				L235.4,544.2z"/>
			<path class="st26" d="M222.7,531.9c-2.1,1.1-3.9,2.6-5.3,4.5c-0.8,1.1-1.4,2.3-1.8,3.6c-0.4,1.3-0.6,2.7-0.6,4.1
				c0,2.1,1.7,3.9,3.9,3.9c2.1,0,3.9-1.7,3.9-3.9V531.9"/>
			<path class="st7" d="M243.1,558v-13.8c0,0,0,0,0,0c0,0,0,0,0,0h0h-7.7V558"/>
			<path class="st27" d="M239.3,540.3c-2.1,0-3.9,1.7-3.9,3.9l0,0c0,2.1,1.7,3.9,3.9,3.9c2.1,0,3.9-1.7,3.9-3.9h0c0,0,0,0,0,0
				C243.1,542,241.4,540.3,239.3,540.3"/>
			<circle class="st20" cx="218.9" cy="523" r="3.9"/>
			<path class="st16" d="M235.4,557.9c0-2.1,1.7-3.9,3.9-3.9s3.9,1.7,3.9,3.9s-1.7,3.9-3.9,3.9S235.4,560.1,235.4,557.9L235.4,557.9
				z"/>
			<circle class="st21" cx="218.9" cy="557.9" r="3.9"/>
		</g>
		<g>
			<path class="st5" d="M252.9,561.8c-2.1,0-3.9-1.7-3.9-3.9v-23.8c0-2.1,1.7-3.9,3.9-3.9s3.9,1.7,3.9,3.9v23.8
				C256.8,560.1,255,561.8,252.9,561.8z"/>
			<path class="st3" d="M277.2,544.2c0-10.6-11.7-17.1-21-12c0.3,0.6,0.6,1.3,0.6,2v10c0-6.9,10.3-8.5,12.5-1.8
				c0.2,0.6,0.3,1.2,0.3,1.8C270.4,544.2,276.2,544.2,277.2,544.2L277.2,544.2z"/>
			<path class="st15" d="M256.2,532.2c-1.9,1-3.5,2.5-4.7,4.2c-0.8,1.1-1.4,2.3-1.8,3.6c-0.4,1.3-0.6,2.7-0.6,4.1
				c0,2.1,1.7,3.9,3.9,3.9c2.1,0,3.9-1.7,3.9-3.9v-10C256.8,533.4,256.6,532.8,256.2,532.2"/>
			<rect x="269.5" y="544.2" class="st21" width="7.7" height="14.1"/>
			<path class="st23" d="M273.3,540.3c-2.1,0-3.9,1.7-3.9,3.9l0,0c0,2.1,1.7,3.9,3.9,3.9c2.1,0,3.9-1.7,3.9-3.9l0,0
				C277.2,542,275.5,540.3,273.3,540.3"/>
			<circle class="st16" cx="273.3" cy="557.9" r="3.9"/>
			<circle class="st11" cx="252.9" cy="557.9" r="3.9"/>
		</g>
		<g>
			<path class="st5" d="M308.1,546.7c0-0.9-0.1-1.7-0.4-2.5c-0.2-0.8-0.6-1.5-1.1-2.2c-0.9-1.3-2.3-2.4-3.8-3.1
				c-1-0.4-2.2-0.7-3.4-0.7c-0.9,0-1.8,0.1-2.6,0.4c-0.8,0.2-1.6,0.6-2.3,1.1c-1.4,0.9-2.5,2.2-3.1,3.7c-0.4,1-0.7,2.1-0.7,3.2l0,0
				h-7.7c0-1.7,0.3-3.3,0.7-4.8c0.5-1.5,1.2-2.9,2.1-4.2c1.8-2.6,4.3-4.6,7.2-5.8c2-0.8,4.1-1.3,6.3-1.3c0,0,0,0,0,0
				c1.7,0,3.3,0.3,4.8,0.7c1.5,0.5,3,1.2,4.3,2c2.6,1.7,4.7,4.2,5.9,7.1c0.8,1.9,1.3,4.1,1.3,6.3H308.1z"/>
			<path class="st10" d="M315.8,546.7c0,2.1-1.7,3.9-3.9,3.9c-2.1,0-3.9-1.7-3.9-3.9l0,0c0,4.7-3.9,8.4-8.7,8.4
				c-4.8,0-8.7-3.8-8.7-8.4l0,0c0,2.1-1.7,3.9-3.9,3.9c-2.1,0-3.9-1.7-3.9-3.9c0,8.9,7.3,16.1,16.4,16.1c0,0,0,0,0,0
				C308.5,562.8,315.8,555.6,315.8,546.7"/>
			<path class="st11" d="M286.9,542.8c-2.1,0-3.9,1.7-3.9,3.9l0,0c0,2.1,1.7,3.9,3.9,3.9c2.1,0,3.9-1.7,3.9-3.9l0,0
				C290.8,544.6,289,542.8,286.9,542.8"/>
			<path class="st6" d="M312,542.8c-2.1,0-3.9,1.7-3.9,3.9l0,0c0,2.1,1.7,3.9,3.9,3.9c2.1,0,3.9-1.7,3.9-3.9l0,0
				C315.8,544.6,314.1,542.8,312,542.8"/>
		</g>
		<g>
			<path class="st8" d="M337.2,562c-0.9,0.1-1.8,0.2-2.7,0.2c-3.3,0-6-1-8-2.9c-3.2-3-3.1-7.2-3.1-8.3v-28h7.7v28.4l0,0.1
				c0,0.4,0.1,1.7,0.8,2.3c0.7,0.7,2.2,0.9,4.3,0.6L337.2,562z"/>
			<circle class="st9" cx="336.7" cy="558.2" r="3.9"/>
			<circle class="st5" cx="327.3" cy="522.9" r="3.9"/>
		</g>
		<g>
			<path class="st5" d="M370,546.7c0-0.9-0.1-1.7-0.4-2.5c-0.2-0.8-0.6-1.5-1.1-2.2c-0.9-1.3-2.3-2.4-3.8-3.1
				c-1-0.4-2.2-0.7-3.4-0.7c-0.9,0-1.8,0.1-2.6,0.4c-0.8,0.2-1.6,0.6-2.3,1.1c-1.4,0.9-2.5,2.2-3.1,3.7c-0.4,1-0.7,2.1-0.7,3.2l0,0
				H345c0-1.7,0.3-3.3,0.7-4.8c0.5-1.5,1.2-2.9,2.1-4.2c1.8-2.6,4.3-4.6,7.2-5.8c2-0.8,4.1-1.3,6.3-1.3c0,0,0,0,0,0
				c1.7,0,3.3,0.3,4.8,0.7c1.5,0.5,3,1.2,4.3,2c2.6,1.7,4.7,4.2,5.9,7.1c0.8,1.9,1.3,4.1,1.3,6.3H370z"/>
			<path class="st10" d="M377.7,546.7c0,2.1-1.7,3.9-3.9,3.9c-2.1,0-3.9-1.7-3.9-3.9l0,0c0,4.7-3.9,8.4-8.7,8.4
				c-4.8,0-8.7-3.8-8.7-8.4l0,0c0,2.1-1.7,3.9-3.9,3.9c-2.1,0-3.9-1.7-3.9-3.9c0,8.9,7.3,16.1,16.4,16.1c0,0,0,0,0,0
				C370.4,562.8,377.7,555.6,377.7,546.7"/>
			<path class="st11" d="M348.8,542.8c-2.1,0-3.9,1.7-3.9,3.9l0,0c0,2.1,1.7,3.9,3.9,3.9c2.1,0,3.9-1.7,3.9-3.9l0,0
				C352.7,544.6,350.9,542.8,348.8,542.8"/>
			<path class="st6" d="M373.9,542.8c-2.1,0-3.9,1.7-3.9,3.9l0,0c0,2.1,1.7,3.9,3.9,3.9c2.1,0,3.9-1.7,3.9-3.9l0,0
				C377.7,544.6,376,542.8,373.9,542.8"/>
		</g>
		<g>
			<path class="st16" d="M406.9,559.3L406.9,559.3L406.9,559.3L406.9,559.3L406.9,559.3L406.9,559.3c0,0,0,0.2,0,0.4
				c-0.4,2.7-2.1,5-5,5.7l1.8,7.5c5.6-1.4,9.2-5.5,10.5-10.6c0.6-2.2,0.4-1.9,0.4-15.4c0-2.8,0-5.6,0-7.7c0-1,0-1.9,0-2.5
				c0-0.6,0-0.9,0-0.9h-7.7L406.9,559.3z"/>
			<path class="st21" d="M388.1,562.6c2.3,0,2.2,1.5,6.1,2.5c2.7,0.7,5.8,0.7,7.7,0.2l1.8,7.5c-5.1,1.2-12.9,0.5-18-3.3L388.1,562.6
				z"/>
			<path class="st28" d="M402.8,565.2c-0.3,0-0.6,0-0.9,0.1l0,0c-2.1,0.5-3.3,2.6-2.8,4.7c0.4,1.8,2,2.9,3.7,2.9
				c0.3,0,0.6,0,0.9-0.1c0,0,0,0,0,0c2.1-0.5,3.3-2.6,2.8-4.7C406.1,566.4,404.6,565.2,402.8,565.2"/>
			<path class="st11" d="M399.1,531.7c-11.2,0-18.7,10.7-14.2,20.1c3.8,8,14.2,11,22,6.7c0-2,0-7.1,0-12c-0.3,3.4-3.6,6.3-7.8,6.3
				l0,0c-2.8,0-5.2-1.3-6.6-3.1c-4.2-5.6,2.8-12.4,9.8-9.7c2.5,0.9,4.4,3.1,4.6,5.7c0-3.6,0-6.2,0-10.1h0c0-0.6,0.1-1.2,0.4-1.7
				C404.9,532.5,402.1,531.7,399.1,531.7 M414.6,545.4c0,0.4,0,0.9,0,1.3c0,0,0,0,0,0c0-0.2,0-0.4,0-0.7
				C414.7,545.9,414.7,545.7,414.6,545.4"/>
			<path class="st29" d="M407.3,533.9c-0.3,0.5-0.4,1.1-0.4,1.7h0c0,0,0,0.3,0,0.9c0,1.7,0,5.3,0,9.1c0,0.1,0,0.3,0,0.4
				c0,0.1,0,0.3,0,0.4c0,4.9,0,10.1,0,12c2-1.1,3.6-2.5,5-4.3c0.9-1.1,1.5-2.4,2-3.8c0.4-1.2,0.7-2.4,0.7-3.7c0,0,0,0,0,0
				c0-0.5,0-0.9,0-1.3c-0.1-1.8-0.5-3.5-1.3-5.1c-0.6-1.3-1.4-2.5-2.4-3.6C409.9,535.7,408.7,534.7,407.3,533.9"/>
			<circle class="st21" cx="410.8" cy="535.6" r="3.9"/>
			<path class="st17" d="M384.2,566.5c0-2.1,1.7-3.9,3.9-3.9c2.1,0,3.9,1.7,3.9,3.9s-1.7,3.9-3.9,3.9
				C385.9,570.3,384.2,568.6,384.2,566.5L384.2,566.5z"/>
		</g>
		<g>
			<rect x="421.6" y="534.7" class="st20" width="7.7" height="23.3"/>
			<circle class="st5" cx="425.5" cy="523" r="3.9"/>
			<circle class="st9" cx="425.5" cy="557.9" r="3.9"/>
			<circle class="st30" cx="425.5" cy="534.7" r="3.9"/>
		</g>
		<g>
			<path class="st5" d="M443.7,546.5L443.7,546.5c0,1.4,0.3,2.7,0.7,3.8c0.5,1.1,1.1,2,2,2.7c0.6,0.5,1.2,0.9,2,1.2
				c1,0.4,2.3,0.7,3.9,0.7c0,0,0,0,0,0c1,0,2-0.2,3.1-0.6c1-0.4,2-1,2.7-1.7l5.1,5.7c-1.5,1.3-3.2,2.4-5.1,3.1
				c-1.9,0.7-3.8,1.1-5.9,1.1c0,0,0,0,0,0c-2.1,0-4-0.3-5.8-0.9c-1.8-0.6-3.4-1.5-4.8-2.6c-0.9-0.7-1.7-1.6-2.4-2.5
				c-0.9-1.2-1.7-2.6-2.2-4c-0.7-1.9-1-4-1-6.1H443.7z"/>
			<path class="st21" d="M451.4,530.4C451.4,530.4,451.4,530.4,451.4,530.4C451.4,530.4,451.4,530.4,451.4,530.4
				c-8.5,0-15.5,7.2-15.5,16.1l0,0h0h7.7c0-4.7,3.6-8.4,7.8-8.4c3.4,0,5.9,1.8,7.2,4.5l8.5,3.9C467.1,537.5,460.6,530.4,451.4,530.4
				"/>
			<path class="st22" d="M439.8,542.6c-2.1,0-3.9,1.7-3.9,3.9h0c0,2.1,1.7,3.9,3.9,3.9c2.1,0,3.9-1.7,3.9-3.9
				C443.7,544.3,442,542.6,439.8,542.6"/>
			<path class="st3" d="M458.6,542.6"/>
			<path class="st3" d="M458.6,542.6h-8.7c-2.1,0-3.9,1.7-3.9,3.9c0,2.1,1.7,3.9,3.9,3.9h13.3L458.6,542.6z"/>
			<path class="st23" d="M463.2,542.6h-4.6c0,0,0,0,0,0.1c0.5,1.1,0.7,2.4,0.7,3.8c0,2.1,1.7,3.9,3.9,3.9l0,0c2.1,0,3.9-1.7,3.9-3.9
				l0,0C467.1,544.3,465.4,542.6,463.2,542.6"/>
			<circle class="st16" cx="460.6" cy="555.5" r="3.9"/>
		</g>
		<g>
			<path class="st21" d="M497.5,552.6c0-8.9-11.1-9.9-13.7-10.8c-0.6-0.2-1.9-0.8-2.1-1.3c0,0,0-0.1,0-0.3l-7.7,0
				c0,5.6,4.7,8.4,10.2,9.6c1.2,0.3,5.1,1.2,5.6,2.4c0,0.1,0,0.1,0,0.3C490.7,552.6,496.5,552.6,497.5,552.6L497.5,552.6z"/>
			<path class="st21" d="M481.6,540.3"/>
			<path class="st5" d="M478.9,552.4c2.1,1.4,4.2,2.4,7.1,2.4c1.7,0,3.7-0.4,3.7-2.1h7.7c0,5.4-4.2,9.8-11.4,9.8
				c-4.3,0-7.8-1.3-11.3-3.7L478.9,552.4z"/>
			<path class="st10" d="M494.1,533c-1.1-0.6-2.3-1.1-3.6-1.6c-8-2.8-16.5,0.4-16.5,8.8l7.7,0.1c0-1.1,0.2-2.1,3.2-2.1
				c3.8,0,5.3,2.1,7.4,2.1L494.1,533z"/>
			<path class="st28" d="M477.7,536.4c-2.1,0-3.9,1.7-3.9,3.9c0,0,0,0,0,0c0,2.1,1.7,3.8,3.9,3.8c0,0,0,0,0,0c2.2,0,3.9-1.9,3.8-3.9
				C481.6,538.1,479.9,536.4,477.7,536.4"/>
			<circle class="st22" cx="493.6" cy="552.6" r="3.9"/>
			<circle class="st20" cx="492.3" cy="536.4" r="3.9"/>
			<circle class="st6" cx="476.8" cy="555.6" r="3.9"/>
		</g>
	</g>
</g>
</svg>
